<svg width="200" height="200" viewBox="0 0 200 200" fill="none" xmlns="http://www.w3.org/2000/svg">
<path d="M43.2417 45.8333H75V62.5H41.6667V79.1667H75V95.8333H41.6667V108.333C41.6667 109.733 41.7222 111.122 41.8333 112.5H75V129.167H46.2C50.1899 137.872 56.5957 145.248 64.6556 150.418C72.7156 155.589 82.0908 158.336 91.6667 158.333V166.667H50V183.333H150V166.667H108.333V158.333C117.909 158.336 127.284 155.589 135.344 150.418C143.404 145.248 149.81 137.872 153.8 129.167H125V112.5H158.167C158.278 111.122 158.333 109.733 158.333 108.333V95.8333H125V79.1667H158.333V62.5H125V45.8333H156.758C153.987 35.0984 147.726 25.5892 138.96 18.801C130.194 12.0127 119.42 8.33051 108.333 8.33333H91.6667C80.5797 8.33051 69.8062 12.0127 61.0403 18.801C52.2745 25.5892 46.0134 35.0984 43.2417 45.8333Z" fill="white"/>
</svg>
